<svg width="128" height="128" viewBox="0 0 128 128" fill="none" xmlns="http://www.w3.org/2000/svg">
  <rect width="128" height="128" rx="24" fill="#0a0a0a"/>
  <path d="M64 24C41.9086 24 24 41.9086 24 64C24 86.0914 41.9086 104 64 104C86.0914 104 104 86.0914 104 64C104 41.9086 86.0914 24 64 24ZM64 34C80.5685 34 94 47.4315 94 64C94 80.5685 80.5685 94 64 94C47.4315 94 34 80.5685 34 64C34 47.4315 47.4315 34 64 34Z" 
    fill="#00ff41" fillOpacity="0.2"/>
  <path d="M64 44C52.9543 44 44 52.9543 44 64C44 75.0457 52.9543 84 64 84C75.0457 84 84 75.0457 84 64C84 52.9543 75.0457 44 64 44ZM64 54C69.5228 54 74 58.4772 74 64C74 69.5228 69.5228 74 64 74C58.4772 74 54 69.5228 54 64C54 58.4772 58.4772 54 64 54Z"
    fill="#00ff41"/>
  <circle cx="64" cy="64" r="8" fill="#00ff41"/>
  <rect x="4" y="4" width="120" height="120" rx="20" stroke="#00ff41" strokeWidth="2"/>
  <rect x="2" y="2" width="124" height="124" rx="22" stroke="#00ff41" strokeWidth="1" strokeOpacity="0.5"/>
</svg> 